<svg width="24" height="24" viewBox="0 0 24 24" fill="none" xmlns="http://www.w3.org/2000/svg">
<path d="M20.8422 6.49256C20.7992 6.24418 20.6779 6.01606 20.4959 5.84156C20.314 5.66706 20.0811 5.55532 19.8311 5.52267C14.6324 4.82578 9.36386 4.82578 4.16512 5.52267C3.91522 5.55516 3.68228 5.66675 3.50035 5.84112C3.31842 6.01549 3.19706 6.24349 3.15401 6.49178C2.49912 10.1345 2.49912 13.8648 3.15401 17.5074C3.19702 17.7558 3.31836 17.9839 3.50028 18.1584C3.68219 18.3329 3.91516 18.4447 4.16512 18.4773C6.76211 18.8255 9.37943 19.0001 11.9997 19C14.6194 19 17.2362 18.8254 19.8327 18.4773C20.0827 18.4448 20.3157 18.3331 20.4976 18.1586C20.6796 17.984 20.8009 17.7559 20.8438 17.5074C21.4977 13.8649 21.4972 10.1349 20.8422 6.49256ZM8.88856 14.3489V9.65189C8.89533 9.51533 8.9366 9.38271 9.00853 9.26643C9.08045 9.15015 9.18068 9.054 9.29984 8.98696C9.41901 8.91992 9.55322 8.88418 9.68994 8.88308C9.82667 8.88198 9.96144 8.91556 10.0817 8.98067L14.6861 11.3288C14.8127 11.3894 14.9195 11.4846 14.9943 11.6034C15.0691 11.7222 15.1087 11.8597 15.1087 12C15.1087 12.1403 15.0691 12.2778 14.9943 12.3966C14.9195 12.5154 14.8127 12.6106 14.6861 12.6712L10.0817 15.0193C9.96149 15.0844 9.82679 15.118 9.69013 15.1169C9.55346 15.1159 9.4193 15.0802 9.30015 15.0133C9.18101 14.9463 9.08077 14.8503 9.00879 14.7341C8.93682 14.6179 8.89545 14.4854 8.88856 14.3489Z" fill="#6E41E2"/>
</svg>
